<svg width="78" height="84" viewBox="0 0 78 84" fill="none" xmlns="http://www.w3.org/2000/svg">
<path d="M62.723 18.4109C62.723 15.8938 61.1594 13.6224 58.0419 11.5855C54.9362 9.55627 51.619 8.53586 48.1172 8.53586C43.8353 8.53586 40.2792 9.56853 37.485 11.6501C41.2322 13.4381 44.7741 15.8157 48.9155 16.8458C50.7853 17.3108 52.5625 17.5558 54.2135 17.5558C55.1026 17.5558 56.4452 17.3944 58.2596 17.0878C58.2596 17.3299 57.8059 17.588 56.8807 17.83C49.7354 19.6989 43.004 14.735 37.1766 11.9082C36.4871 12.4245 35.7976 13.1023 35.09 13.9414C34.7093 13.3204 36.3256 12.0622 36.6867 11.7307C36.2694 11.4725 35.9428 11.3112 35.725 11.2467C35.1104 11.434 34.4005 11.6126 34.4005 10.7303C34.0558 10.5528 33.439 10.3269 32.5499 10.0688C32.3406 10.8135 33.8744 11.1588 33.8744 11.8598L33.6567 12.3439C33.0942 11.6501 32.5834 11.2564 32.1145 11.1498C30.9504 10.8853 30.4634 10.3592 30.6266 9.6008L29.7376 9.40715C29.4834 9.85922 28.4494 9.8112 28.4494 9.21355L27.3427 9.11676C27.1139 9.52343 26.1837 9.53016 26.0726 9.03604C25.4561 9.03604 24.808 9.00153 24.2037 9.11676C22.8248 10.8594 22.1354 12.7474 22.1354 14.7965V16.2649C22.1354 16.5391 22.3468 17.2833 22.7704 18.4755C23.6654 20.9943 25.4487 22.5651 27.7599 24.1069L27.4515 24.2037C27.1612 24.2037 26.3819 23.7186 25.0747 22.7354C22.5359 20.8256 21.3915 17.5933 21.3915 14.6997C21.3915 12.8764 21.9177 11.053 22.9881 9.21355C13.477 10.6394 0.562477 15.9383 0.562477 26.0432C0.562477 29.9803 2.08658 32.9816 5.13468 35.0469C9.17188 37.7825 14.2277 38.145 19.1054 38.145C20.4299 38.145 22.262 37.7566 24.6392 36.9671C26.6345 36.3045 28.6671 35.2728 30.7537 33.8852L30.9714 34.0788C27.5591 36.2818 23.3404 38.6452 18.9602 38.6452C13.9828 38.6452 8.84497 38.2018 4.75367 35.3858C1.58239 33.2031 0 30.0287 0 25.8657C0 21.622 2.27244 17.9157 6.78577 14.7642C11.3079 11.6067 16.8011 9.58467 23.2785 8.6972C27.4072 2.90689 36.0826 0 43.5268 0C53.3991 0 63.9513 3.03462 69.6901 10.6335C73.806 16.0834 75.2148 23.091 69.5813 28.1731C74.7544 30.2073 78 34.4605 78 39.5165C78 44.0776 74.1625 47.3921 69.5994 48.8753C70.0893 49.8919 70.3433 51.0537 70.3433 52.3768C70.3433 60.3137 62.1974 65.8039 54.6671 68.448C55.6287 69.8034 56.1005 71.2234 56.1005 72.7078C56.1005 75.7575 54.357 78.4018 50.8932 80.6144C43.3935 85.4052 31.9483 84.9629 24.5485 80.2271C20.6658 77.7423 18.7243 74.4667 18.7243 70.4005C18.5429 70.465 18.1982 70.4973 17.6539 70.4973C12.9365 70.4973 9.03099 69.2754 5.95112 66.8183C2.86218 64.3541 1.3245 61.0578 1.3245 56.9271C1.3245 48.3614 9.74767 42.4367 18.5248 40.8558C20.6102 40.4802 22.5341 40.3599 24.3127 40.4847C28.7393 40.7955 32.1145 41.6304 34.4368 42.9858C36.7592 44.3411 37.9205 45.1963 37.9205 45.5352L37.7027 45.7288C29.1351 39.7656 14.9364 39.2014 7.23935 46.9067C1.91049 52.2413 1.29804 61.1667 7.34824 66.2858C10.2211 68.7165 13.7348 69.9325 17.8716 69.9325H18.7243C18.8695 68.0124 19.5953 66.3988 20.9016 65.0756C19.1235 63.93 17.7453 62.8482 16.7648 61.8162C15.7678 60.7668 15.277 60.1542 15.277 59.9606L15.3677 59.6863C17.1618 61.5476 18.9732 63.405 21.2826 64.7852C22.5527 63.5589 24.0223 62.9457 25.6916 62.9457C27.0705 62.9457 27.7599 63.4943 27.7599 64.5754C27.7599 65.479 27.27 66.3987 26.2721 67.3185C27.9051 67.8832 29.6287 68.3512 31.4794 68.7385C33.3898 64.9067 38.6761 63.1071 43.1096 63.1071C47.2385 63.1071 51.6529 64.6233 54.1046 67.6897C59.076 66.2052 62.9177 64.0875 65.6623 61.316C68.9981 57.9476 70.6686 53.3721 69.2547 49.0044C63.5275 50.898 56.3787 48.8783 51.7278 45.6482V54.7326C51.7278 55.3618 51.6189 55.6685 51.4194 55.6685C51.2017 55.6685 51.0928 55.4748 51.0928 55.1037V45.2609C50.3897 44.7163 49.8515 44.1214 49.2421 43.5021C48.6071 43.8571 47.7725 44.4057 46.7383 45.1641L46.5206 45.0189C47.3734 44.2282 48.1717 43.6312 48.9155 43.2278C47.9721 42.0821 47.1882 40.9864 46.6113 39.92C46.0272 38.8404 45.7223 38.2257 45.7223 38.0643L45.94 37.79C46.9781 39.5594 47.9326 41.4222 49.351 42.9858C49.5143 42.8566 50.0404 42.6469 50.8751 42.3242C50.6155 41.7344 50.3951 40.9227 51.0928 40.4847V40.0168C50.2763 39.8554 49.8772 39.452 49.8772 38.8227C49.8772 38.1289 50.2763 37.7739 51.0928 37.7739V37.306C50.3881 36.8635 50.627 35.99 50.8569 35.3858C51.1927 34.5038 51.0928 33.5281 51.0928 32.6104C50.2038 32.4814 49.6244 32.3184 49.3328 32.1102C48.3958 31.441 50.8835 32.1053 51.0928 32.1425V27.3179C51.0928 26.3654 51.7278 26.3532 51.7278 27.3179V32.2393C52.6532 32.4813 54.2861 32.6104 56.6085 32.6104C60.9311 32.6104 65.3941 30.9417 68.5834 28.3828C63.86 26.6121 59.0642 27.4129 54.4312 28.9637L54.2317 28.8669C54.2317 28.6733 55.1947 28.2893 57.1528 27.689C61.0972 26.4798 65.1784 26.5104 69.0551 27.9795C71.5045 25.6882 72.7201 23.1387 72.7201 20.3311C72.7201 15.4743 70.2344 11.1498 65.2631 7.32568C60.2917 3.50153 53.2882 1.58134 44.2526 1.58134C37.3479 1.58134 29.0688 3.56225 24.6392 8.61653H26.0726C26.25 8.02452 27.292 8.16208 27.4515 8.72946L28.5764 8.85858C28.8356 8.35902 29.8465 8.42045 29.8465 9.05218L30.7537 9.24582C31.1426 8.48479 32.4065 8.71915 33.0942 8.93924C33.8876 9.19322 34.5222 9.17527 35.3259 9.00378C36.0628 10.1505 33.3622 9.21002 32.8221 9.81058C33.6748 10.0526 34.2736 10.2785 34.6364 10.4721C35.1967 10.0737 35.8521 10.3013 35.8521 10.9885L37.0314 11.4564C40.0433 9.18129 43.8172 8.03564 48.3531 8.03564C51.8549 8.03564 55.2264 9.12067 58.441 11.2628C61.6674 13.4127 63.2854 15.8292 63.2854 18.5078C63.2854 18.9757 63.1947 19.2177 63.0133 19.2177C62.8137 19.2177 62.723 18.9434 62.723 18.4109ZM63.2854 18.4916C63.2854 23.451 56.8065 25.8818 52.0725 25.8818C47.7544 25.8818 42.7104 24.7846 36.9407 22.574C29.8646 25.4946 25.8686 30.3177 24.6392 36.9671C23.6264 42.4457 24.8106 49.0116 29.284 52.9899C34.9616 58.0391 45.0604 58.6053 51.746 54.7165C54.5765 53.0701 56.2501 50.7653 58.0781 48.3267L58.187 48.6978C57.5883 51.57 55.4212 54.2447 51.6734 56.7173C43.785 61.9216 31.5689 61.7621 24.1312 55.9105C20.3088 52.9034 18.3796 48.6817 18.3796 43.2278C18.3796 41.5509 18.5674 39.7785 19.0691 38.1612C21.3614 30.771 28.4654 25.15 36.2149 22.2835C31.8925 20.4857 26.9306 18.5078 22.0447 18.5078C16.5629 18.5078 8.20097 20.3836 8.20097 26.5434C8.20097 30.2678 11.6419 31.9811 15.4585 31.9811C16.5653 31.9811 17.9805 31.4809 19.7041 30.4966L19.9219 30.6903C19.9219 30.9162 19.3382 31.2821 18.1619 31.8198C13.5458 33.93 7.6385 31.3969 7.6385 26.6241C7.6385 20.4286 16.4078 17.1714 22.0991 16.2649C24.1936 15.9313 26.3084 15.7001 28.4313 15.7001C33.5615 15.7001 38.2863 17.3417 42.8918 19.2016C47.0811 20.8934 51.3988 22.5578 56.0823 22.5578C59.074 22.5578 62.723 21.6188 62.723 18.3948C62.723 17.9269 62.8137 17.6848 63.0133 17.6848C63.1947 17.6848 63.2854 17.9592 63.2854 18.4916ZM69.3635 48.2137C71.4864 47.3263 73.192 45.987 74.4438 44.2121C78.3709 38.6444 75.8012 31.3651 69.164 28.5765C64.5465 32.4264 57.8746 33.9623 51.7278 32.7395C51.7278 33.63 51.6675 34.5349 51.9456 35.4019C52.1354 35.9942 52.3696 36.8493 51.7278 37.306V37.7739C53.2299 37.7739 53.0756 39.771 51.7278 40.0168V40.4685C52.1587 40.7752 52.2815 41.501 52.0363 41.9369C53.3789 41.4851 55.0119 41.2592 56.9351 41.2592C62.2435 41.2592 67.3154 43.7273 69.3635 48.2137ZM69.0551 48.4074C66.1277 42.443 58.5093 40.7078 51.9456 42.421C51.6134 43.2705 51.7278 44.2766 51.7278 45.1641C56.3343 48.3168 63.3853 50.5407 69.0551 48.4074ZM51.0928 44.6316C51.0928 44.0553 51.2206 43.2215 50.9839 42.6953C50.2038 42.9858 49.7683 43.1794 49.6594 43.3085L51.0928 44.6316ZM53.5966 67.8832C51.1402 65.177 47.0171 63.5589 43.1277 63.5589C38.9429 63.5589 34.0088 65.2704 32.1145 68.8191C39.0816 70.2693 46.807 69.7653 53.5966 67.8832ZM25.5827 66.9958C26.6169 66.2052 27.1249 65.4306 27.1249 64.6723C27.1249 63.9139 26.5443 63.5427 25.365 63.5427C24.0949 63.5427 22.8793 64.043 21.6999 65.0595C23.0789 65.8824 24.3852 66.5279 25.5827 66.9958ZM25.2379 67.4153C23.8227 66.7215 22.5345 66.0438 21.3552 65.3822C20.2303 66.6247 19.5771 68.093 19.3957 69.8357C21.5548 69.513 23.5143 68.7062 25.2379 67.4153ZM19.3957 70.3197C19.3957 79.4703 30.1368 83.3575 38.7369 83.3575C43.3816 83.3575 47.337 82.3086 50.6211 80.1949C53.9051 78.0811 55.538 75.5639 55.538 72.6272C55.538 71.3041 55.1026 69.9809 54.2135 68.6578C47.1937 70.8973 39.1438 71.2573 31.9149 69.5614C31.1009 71.3105 31.7131 73.6151 33.3482 74.8216C34.5085 75.6777 35.9246 76.1125 37.5939 76.1125C38.927 76.1125 41.5855 75.6603 41.5855 74.0633C41.5855 73.4662 41.2589 73.1597 40.6239 73.1597C40.769 73.321 40.8416 73.563 40.8416 73.9019C40.8416 74.5341 39.1905 74.4226 39.1905 73.6115C39.1905 72.9177 39.6441 72.5627 40.5695 72.5627C41.6399 72.5627 42.1661 73.0467 42.1661 73.9987C42.1661 75.9472 39.303 76.6127 37.5939 76.6127C33.2973 76.6127 29.7712 73.297 31.2798 69.3839C29.6832 69.0612 27.8688 68.4803 25.8367 67.6251C24.24 68.9805 22.0991 69.8841 19.3957 70.3197Z" fill="white"/>
</svg>
